<mxfile host="app.diagrams.net" agent="Mozilla/5.0 (Windows NT 10.0; Win64; x64) AppleWebKit/537.36 (KHTML, like Gecko) Chrome/134.0.0.0 Safari/537.36 Edg/134.0.0.0" version="26.1.0">
  <diagram id="C5RBs43oDa-KdzZeNtuy" name="Page-1">
    <mxGraphModel dx="1426" dy="781" grid="1" gridSize="10" guides="1" tooltips="1" connect="1" arrows="1" fold="1" page="1" pageScale="1" pageWidth="827" pageHeight="1169" math="0" shadow="0">
      <root>
        <mxCell id="WIyWlLk6GJQsqaUBKTNV-0" />
        <mxCell id="WIyWlLk6GJQsqaUBKTNV-1" parent="WIyWlLk6GJQsqaUBKTNV-0" />
        <mxCell id="R4BwSNrIrO0T85q8sav3-6" style="edgeStyle=orthogonalEdgeStyle;rounded=0;orthogonalLoop=1;jettySize=auto;html=1;exitX=0.5;exitY=1;exitDx=0;exitDy=0;entryX=0.5;entryY=0;entryDx=0;entryDy=0;" edge="1" parent="WIyWlLk6GJQsqaUBKTNV-1" source="R4BwSNrIrO0T85q8sav3-0" target="R4BwSNrIrO0T85q8sav3-1">
          <mxGeometry relative="1" as="geometry" />
        </mxCell>
        <mxCell id="R4BwSNrIrO0T85q8sav3-0" value="Inicio" style="ellipse;whiteSpace=wrap;html=1;" vertex="1" parent="WIyWlLk6GJQsqaUBKTNV-1">
          <mxGeometry x="330" y="80" width="90" height="50" as="geometry" />
        </mxCell>
        <mxCell id="R4BwSNrIrO0T85q8sav3-3" value="" style="edgeStyle=orthogonalEdgeStyle;rounded=0;orthogonalLoop=1;jettySize=auto;html=1;" edge="1" parent="WIyWlLk6GJQsqaUBKTNV-1" source="R4BwSNrIrO0T85q8sav3-1" target="R4BwSNrIrO0T85q8sav3-2">
          <mxGeometry relative="1" as="geometry" />
        </mxCell>
        <mxCell id="R4BwSNrIrO0T85q8sav3-1" value="Recibe una URL de la&amp;nbsp;&lt;div&gt;API de Nest&lt;/div&gt;" style="shape=parallelogram;perimeter=parallelogramPerimeter;whiteSpace=wrap;html=1;fixedSize=1;" vertex="1" parent="WIyWlLk6GJQsqaUBKTNV-1">
          <mxGeometry x="280" y="160" width="185" height="60" as="geometry" />
        </mxCell>
        <mxCell id="R4BwSNrIrO0T85q8sav3-5" value="" style="edgeStyle=orthogonalEdgeStyle;rounded=0;orthogonalLoop=1;jettySize=auto;html=1;" edge="1" parent="WIyWlLk6GJQsqaUBKTNV-1" source="R4BwSNrIrO0T85q8sav3-2" target="R4BwSNrIrO0T85q8sav3-4">
          <mxGeometry relative="1" as="geometry" />
        </mxCell>
        <mxCell id="R4BwSNrIrO0T85q8sav3-2" value="Decodifica la URL recibida" style="whiteSpace=wrap;html=1;" vertex="1" parent="WIyWlLk6GJQsqaUBKTNV-1">
          <mxGeometry x="278.75" y="260" width="187.5" height="60" as="geometry" />
        </mxCell>
        <mxCell id="R4BwSNrIrO0T85q8sav3-8" value="" style="edgeStyle=orthogonalEdgeStyle;rounded=0;orthogonalLoop=1;jettySize=auto;html=1;" edge="1" parent="WIyWlLk6GJQsqaUBKTNV-1" source="R4BwSNrIrO0T85q8sav3-4" target="R4BwSNrIrO0T85q8sav3-7">
          <mxGeometry relative="1" as="geometry" />
        </mxCell>
        <mxCell id="R4BwSNrIrO0T85q8sav3-4" value="Transforma la URL decodificada a un arreglo de numpy" style="whiteSpace=wrap;html=1;" vertex="1" parent="WIyWlLk6GJQsqaUBKTNV-1">
          <mxGeometry x="263.75" y="370" width="217.5" height="60" as="geometry" />
        </mxCell>
        <mxCell id="R4BwSNrIrO0T85q8sav3-7" value="Aplica un filtro en escala de grises a la imagen original" style="whiteSpace=wrap;html=1;" vertex="1" parent="WIyWlLk6GJQsqaUBKTNV-1">
          <mxGeometry x="262.5" y="470" width="220" height="60" as="geometry" />
        </mxCell>
      </root>
    </mxGraphModel>
  </diagram>
</mxfile>
